<svg id="Calque_1" data-name="Calque 1" xmlns="http://www.w3.org/2000/svg" viewBox="0 0 477.56 475.25"><path d="M332,348.9c-37.72,20.46-74.18,14.46-96.77-14.95A70.35,70.35,0,0,1,332.13,234c22.9,16.4,42.67,53.56,16.67,98.52C365.89,349.42,383,367,400.88,383.68c8,7.5,8.89,12.83.23,20.36-6.14,5.33-10,4.5-15.16-.8C368.25,385.11,350.26,367.25,332,348.9Zm9.37-57.68c0-27.7-23.29-50.79-50.88-50.43a50.73,50.73,0,0,0-49.79,50.27c-.15,27.08,22.49,50.1,49.63,50.45C317.93,341.87,341.35,318.78,341.36,291.22Z"/><path d="M153.14,254.3H135v33.78H84.64V271.83H117.5v-16.6H67.58V238.44L84,237.18l-2.2-15.74-.25.25,18.11-1c.6,5.91,1.08,10.61,1.64,16.2h16v-33H84.56V187.62h49.36c.59,4.83,1.21,9.86,1.9,15.47h15.51c.56-4.89,1.13-9.89,1.79-15.63h15c.56,4.71,1.15,9.71,1.81,15.35l17.58,1.94-.28-.33-1.16,15.75,16.3,1.06v15.38l-15.9,1.67v16.43l.39-.33-17.29,0,.35.34V221.09H136v16.16l15.38,1.36c.45,5.92.85,11,1.24,16.14Z"/><path d="M168.46,67.62V168.55h-101V67.62ZM151.81,84.16H84.39v67.37h67.42Z"/><path d="M407.91,67.75V168.42h-101V67.75ZM322.73,83.92c0,21.44-.16,41.81.24,62.17,0,2.14,3.33,6,5.18,6,20.73.44,41.48.28,62.6.28V83.92Z"/><path d="M168.49,307.09V407.85h-101V307.09ZM84.2,323.37v67.42h67.14V323.37Z"/><path d="M21.48,133.32H1.8c0-26.75-2.95-53.53.78-79.34C6.74,25.23,27.24,5.78,55.9,1.78,81-1.73,107,1,133.32,1V20.89c-9.81,0-19.65,0-29.49,0-12.08,0-24.2-.48-36.23.34C41,23.06,22.17,42.81,21.57,69.48,21.11,90.33,21.48,111.2,21.48,133.32Z"/><path d="M342.31,20.87V1.49c27,0,53.75-2.65,79.71.72,28.21,3.66,50.23,28.92,52.64,57.34,2,24.26.42,48.84.42,73.71H454.79c0-18.9.26-37.67-.13-56.42-.16-7.57-.65-15.46-2.91-22.59-6.62-20.91-25.06-33.06-49.39-33.34C382.68,20.69,363,20.87,342.31,20.87Z"/><path d="M454.78,342h22.78C476,370.35,477.12,398.74,472,426c-5,26.53-25.35,44.21-52,47.65-25.23,3.25-51.2.7-77.55.7V454.5H367c12.09,0,24.18.21,36.27-.06,31-.71,51.1-21,51.45-52.06C455,382.69,454.78,363,454.78,342Z"/><path d="M.12,342.08H21.43v39.31c0,7.25-.11,14.5,0,21.75.51,30.57,20.13,50.64,50.68,51.27,20.06.41,40.14.07,61,.07v19.3c-26.67,0-53.44,2.87-79.31-.74C22.51,468.67.76,439.21.19,407.39-.19,386.1.12,364.79.12,342.08Z"/><path d="M254.67,170.19V153l-16.41-1.82V136.16l15.51-1.38L255.5,119h32.06v15.1l-16.48,1.77v34.3l.46-.47H254.25Z"/><path d="M202.81,81.68l1.42-14h32.93V99.94l16.75,1.87V117H221.16V85.11L202.62,81.4Z"/><path d="M271.08,170.22l16.51-.78,1.73,16.26L305,187.49v15.87H254.62V186.75l-.39.3L271.54,186V169.74Z"/><path d="M187.35,136l15.38-1.16c.47-5.11.9-9.75,1.43-15.5h15.39v31.75h-32.2Z"/><path d="M272.59,67.36h15.16V99.9H272.59Z"/><path d="M202.62,81.4v35.34H187.13V85.34c5.32-1.2,10.53-2.38,15.72-3.61Z"/><path d="M170,271.22H152.4c.27-6.18.51-11.55.74-16.92l-.49.45h17.29l-.35-.34q0,8.64,0,17.28Z"/><path d="M186.49,254.71h16v16.58H186.59l.28.38q0-8.64,0-17.29Z"/><path d="M187.61,287.38,170,288.83V271.22l-.46.46h17.3l-.28-.38.78,16.36Z"/><path d="M187.37,287.65l14.93,2.23v14.74H186.54c.34-5.61.69-11.41,1.05-17.22Z"/><path d="M187.53,204.75c-.39-5.42-.77-10.84-1.29-18,6.69.36,12.36.67,18,1l-.36-.4c-.43,5-.87,9.94-1.34,15.27-5.45.65-10.4,1.24-15.32,1.85Z"/><path d="M220.05,187.6l18.2.27-.28-.37c-.35,4.74-.71,9.47-1.12,15H221.17c-.27-5.24-.52-10.28-.78-15.33Z"/><path d="M81.76,221.44l-14.49-1.91v-15H83.53c-.68,5.86-1.34,11.51-2,17.19Z"/><path d="M220.39,187.2q-8.26,0-16.52.05l.38.42c0-5.5,0-11,0-17.31h15.81c0,5.6,0,11.4,0,17.22Z"/><path d="M238.25,187.87V170.19h16.42l-.42-.44q0,8.66,0,17.3l.39-.3c-5.56.23-11.13.47-16.67.73Z"/><path d="M187.16,339V323.91h15.29V339Z"/><path d="M339.07,187.22V202.8H323.89V187.22Z"/><path d="M373.45,187.32v15.15H358.54V187.32Z"/><path d="M202.4,373.84H187.28V358.71H202.4Z"/><path d="M133.42,134.56H101.91V101.79h31.51Z"/><path d="M373.66,101.81v32.36H340.87V101.81Z"/><path d="M134.22,341v32.63H101.88V341Z"/></svg>